<?xml version="1.0" encoding="utf-8" ?><svg xmlns="http://www.w3.org/2000/svg" xmlns:xlink="http://www.w3.org/1999/xlink" width="32" height="32" viewBox="0 0 32 32"><path d="M0 0L10.6351 0C11.5618 0.796566 14.3355 3.04396 14.9748 3.76696C14.9996 5.5866 15.3124 10.6077 14.4222 11.9713C13.5423 12.3694 13.5572 12.5459 12.7776 12.3362C12.088 11.2742 12.7741 9.29921 12.4158 7.38351C12.042 6.46814 12.1867 6.35027 11.4647 6.03957C10.4239 6.46736 3.72279 11.2264 3.47192 11.9735C4.35712 13.5046 7.6035 13.2434 9.23226 13.2307C10.2418 13.2695 11.8711 13.0304 12.2259 14.0967C7.79396 17.9309 4.19684 15.4113 0 12.9514L0 0ZM3.07629 10.4334C4.5164 9.28348 6.32699 7.75353 7.7989 6.7107C9.07201 5.46013 10.0669 4.05308 11.4346 3.0426C9.56786 3.03286 4.72024 3.23307 3.25251 3.02925C2.84442 4.83146 3.0125 8.52429 3.07629 10.4334Z"/><path d="M20.7763 19.3183C19.6996 20.8359 19.8844 22.3644 18.3385 22.9855C17.4775 22.7851 17.7575 22.9394 17.1429 22.2391C16.9107 21.4963 16.8824 21.1493 17.2315 20.4242C19.479 15.7569 26.012 16.6538 29.9959 18.2071C30.6299 18.4543 31.3701 18.8373 32 19.1529L32 22.6897C28.944 24.1175 24.8408 27.0254 22.8785 29.7256C26.148 30.3325 28.6775 30.2375 32 30.241L32 32L16.8336 32C18.3881 29.0338 20.4271 28.2774 22.9366 26.2612C24.4894 25.0136 29.9498 21.8727 28.3271 19.6116C25.3392 18.2032 23.8365 18.6742 20.7763 19.3183Z"/><path d="M22.7054 0L24.995 0C24.9948 4.32618 24.8917 8.65174 24.6857 12.973C26.3551 13.0927 28.7467 12.875 29.2142 14.8232C28.5036 17.0156 19.8004 16.0564 18.8746 14.2566C19.5575 13.1141 21.7962 13.0547 23.0235 13.1224C23.226 10.8187 23.3843 6.07536 22.8761 3.84534C22.3165 2.31289 23.2678 2.76636 23.0489 0.650666L22.7054 0Z"/><path d="M0 27.863C5.40909 29.2713 4.02753 30.3037 10.311 30.0065L12.3024 28.6249C12.9862 28.9967 13.137 29.0364 13.4254 29.9436C12.9647 30.4316 11.9005 31.5061 11.5557 32L0 32L0 27.863Z"/><defs><linearGradient id="gradient_0" gradientUnits="userSpaceOnUse" x1="5.5687351" y1="19.388788" x2="5.3192849" y2="17.524176"><stop offset="0" stop-color="black" stop-opacity="0.96470588"/><stop offset="1" stop-color="black"/></linearGradient></defs><path fill="url(#gradient_0)" d="M0 19.3605C3.16227 17.0537 7.82036 16.3076 11.5038 17.657C10.4271 18.334 9.97476 18.129 9.47784 18.9374C3.34684 18.5077 3.40153 20.8376 0 21.1384L0 19.3605Z"/><path d="M11.5038 17.657C12.9398 18.337 14.5107 19.0415 15.104 20.6781C15.3126 21.2479 15.2809 21.878 15.0162 22.424C14.4608 23.5915 13.6432 23.8062 12.5261 24.199C12.2283 24.3035 11.9297 24.4056 11.6302 24.5053L11.2654 24.6028L11.0721 25.2967L10.3704 25.3557L10.9283 25.1885L10.9902 24.7638L10.6022 24.2823L8.75541 24.1756C10.9988 23.984 13.0503 22.7291 11.7903 20.1606C11.4678 19.503 10.17 19.1689 9.47784 18.9374C9.97476 18.129 10.4271 18.334 11.5038 17.657Z"/><path d="M10.7103 25.8416C9.08864 25.939 5.46669 26.3024 4.57122 24.6836C5.59648 23.7928 7.36997 24.0957 8.75541 24.1756L10.6022 24.2823L10.9902 24.7638L10.9283 25.1885L10.3704 25.3557L11.0721 25.2967L11.2654 24.6028L11.6302 24.5053C12.2792 26.1796 13.8437 27.2913 15.2262 28.4291L13.4254 29.9436C13.137 29.0364 12.9862 28.9967 12.3024 28.6249C12.3378 27.671 11.3004 26.5452 10.7103 25.8416Z"/><path d="M19.056 4.10707C20.3545 2.55913 21.3937 1.72365 23.0489 0.650666C23.2678 2.76636 22.3165 2.31289 22.8761 3.84534C22.1259 3.83553 19.8966 4.04789 19.056 4.10707Z"/><path d="M12.4158 7.38351C12.7741 9.29921 12.088 11.2742 12.7776 12.3362C13.5572 12.5459 13.5423 12.3694 14.4222 11.9713C14.0212 12.5131 12.9096 13.9543 12.2259 14.0967C11.8711 13.0304 10.2418 13.2695 9.23226 13.2307C9.85119 13.1023 11.3778 13.0131 12.073 12.9544C12.1326 11.2159 12.1541 9.06532 12.4158 7.38351Z"/></svg>